<svg id="Layer_3" data-name="Layer 3" xmlns="http://www.w3.org/2000/svg" xmlns:xlink="http://www.w3.org/1999/xlink" viewBox="0 0 512 512"><defs><style>.cls-1,.cls-10,.cls-11,.cls-7,.cls-9{fill:none;}.cls-2{fill:#f8c014;}.cls-3{fill:#fff;}.cls-4{fill:#fcecb8;}.cls-5{fill:#221f1f;}.cls-6{clip-path:url(#clip-path);}.cls-10,.cls-11,.cls-7{stroke:#f9c114;}.cls-7{stroke-miterlimit:10;}.cls-10,.cls-7,.cls-9{stroke-width:2px;}.cls-8{fill:#2a2b2a;}.cls-9{stroke:#2a2b2a;}.cls-10,.cls-11,.cls-9{stroke-linecap:round;stroke-linejoin:round;}.cls-11{stroke-width:4px;}</style><clipPath id="clip-path"><rect class="cls-1" x="279.688" y="162.56" width="4.355" height="6.726"/></clipPath></defs><title>sprite</title><path id="facebook" d="M78.446,32V20h3.313l.439-4.136H78.446l.006-2.07c0-1.079.1-1.657,1.652-1.657h2.071V8H78.862c-3.98,0-5.381,2.006-5.381,5.38v2.483H71V20h2.481V32Z"/><path id="twitter" d="M107.653,15.359l.052.858-.867-.105a14.1,14.1,0,0,1-8.254-4.062l-1.145-1.138-.294.841a5.05,5.05,0,0,0,1.075,5.182c.693.735.537.84-.659.4a2.063,2.063,0,0,0-.815-.193,6.246,6.246,0,0,0,.624,2.346,5.6,5.6,0,0,0,2.376,2.241l.849.4-1,.017c-.971,0-1.006.018-.9.385a5.242,5.242,0,0,0,3.243,2.871l1.075.368-.937.56a9.754,9.754,0,0,1-4.647,1.3,5.1,5.1,0,0,0-1.422.14,13.228,13.228,0,0,0,3.347,1.541,14.654,14.654,0,0,0,11.376-1.3,15.221,15.221,0,0,0,5.774-6.793,18.046,18.046,0,0,0,1.18-5.252c0-.8.052-.91,1.023-1.873a11.445,11.445,0,0,0,1.214-1.348c.173-.333.156-.333-.729-.035-1.474.525-1.682.455-.953-.333a5.1,5.1,0,0,0,1.179-1.873c0-.053-.26.035-.555.192a9.722,9.722,0,0,1-1.526.6l-.937.3-.849-.577a7.061,7.061,0,0,0-1.474-.771,5.928,5.928,0,0,0-3.035.07A5.013,5.013,0,0,0,107.653,15.359Z"/><path id="messenger" d="M139.888,8C133.323,8,128,12.975,128,19.111a10.834,10.834,0,0,0,4.43,8.652V32l4.048-2.242a12.7,12.7,0,0,0,3.41.464c6.566,0,11.889-4.974,11.889-11.111S146.454,8,139.888,8Zm1.182,14.963L138.042,19.7l-5.907,3.259,6.5-6.963,3.1,3.259L147.568,16l-6.5,6.963Z"/><path id="copy-link-icon" d="M172.133,10.66v.007h-6.811a2.666,2.666,0,0,0-2.655,2.659V26.674a2.662,2.662,0,0,0,2.659,2.659h13.348a2.665,2.665,0,0,0,2.659-2.666V21.3h0a1.333,1.333,0,0,1,2.666,0h0v5.364A5.333,5.333,0,0,1,178.674,32H165.326A5.329,5.329,0,0,1,160,26.674V13.326A5.333,5.333,0,0,1,165.322,8h6.811v.007a1.333,1.333,0,0,1,0,2.653Zm3.342,9.483,1.65,1.65-4.18,4.181c-1.482,1.482-4.047,1-5.822-.778s-2.259-4.341-.783-5.817l4.186-4.186,1.65,1.65-4.186,4.186c-.375.374-.154,1.527.809,2.49s2.114,1.187,2.5.805Zm3.33-.03-1.65-1.65,4.181-4.18c.382-.383.166-1.525-.805-2.5s-2.116-1.184-2.49-.809l-4.186,4.186-1.65-1.65,4.186-4.186c1.477-1.476,4.049-.985,5.817.783s2.26,4.34.778,5.822Zm-3.279-4.97a1.166,1.166,0,1,1,1.65,1.649l-3.368,3.369a1.167,1.167,0,1,1-1.65-1.65Z"/><g id="Symbols"><g id="desktop-nav"><g id="tasz-logo"><g id="Page-1"><path id="Fill-1" class="cls-2" d="M20.923,44.56l1.188-5.45h.212l1.251,5.45Zm3.69-8.609c-.213-.552-.488-.7-1.1-.7H21.093c-.615,0-.891.127-1.1.742L15.113,49.437c-.212.572-.084.869.573.869h2.226c1.06,0,1.336-.233,1.548-.891l.488-1.526h4.58l.488,1.526c.169.658.488.891,1.59.891H28.9c.636,0,.827-.3.615-.869Z"/><path id="Fill-2" class="cls-2" d="M37.108,40.849c-1.527-.191-2.778-.382-2.778-1.294,0-.742.573-1.1,2.015-1.1a2.157,2.157,0,0,1,2.141,1.1c.34.615.573.7,1.145.446l2.121-.912c.636-.255.806-.573.509-1.187-1-2.036-2.778-2.969-5.916-2.969-4.05,0-6.3,1.95-6.3,4.75,0,4.113,3.477,4.558,5.958,4.9,1.4.191,2.481.424,2.481,1.251,0,.912-.848,1.209-2.269,1.209a2.464,2.464,0,0,1-2.395-1.124c-.319-.615-.616-.679-1.252-.467l-1.993.721c-.615.233-.806.53-.573,1.167.806,2.2,3.011,3.286,6.171,3.286,3.753,0,6.573-1.718,6.573-4.835,0-4.007-3.18-4.6-5.64-4.94"/><path id="Fill-3" class="cls-2" d="M54.547,46.6H49.182l5.873-8.248a1.479,1.479,0,0,0,.276-.933V36.141c0-.657-.212-.89-.89-.89H44.6c-.658,0-.891.233-.891.89V38.05c0,.679.233.912.891.912h5.173L43.9,47.231a1.41,1.41,0,0,0-.3.891v1.293c0,.658.234.891.891.891H54.547c.678,0,.89-.233.89-.891V47.486c0-.679-.212-.891-.89-.891"/><path id="Fill-4" class="cls-2" d="M55.478,31.094,49.145,2.336a1.7,1.7,0,0,0-2.522-1.1L1.84,28.653A1.7,1.7,0,0,0,1,30.182l.1,1.549a1.7,1.7,0,0,0,1.676,1.638l4.51.055a1.7,1.7,0,0,1,1.671,1.551l.928,14.44c0,.658.212.891.891.891H12.6c.63,0,1.007-.755,1.007-.755L17.194,34.63a1.7,1.7,0,0,1,1.641-1.29l34.991-.18a1.7,1.7,0,0,0,1.652-2.066"/></g></g></g></g><path class="cls-3" d="M84.685,309.656a2.146,2.146,0,0,0-2.14,2.14V329h4.279V311.8A2.146,2.146,0,0,0,84.685,309.656Z"/><path class="cls-3" d="M99.337,309.656A2.145,2.145,0,0,0,97.2,311.8V329h4.278V311.8A2.146,2.146,0,0,0,99.337,309.656Z"/><path class="cls-3" d="M37.412,228.971a13.553,13.553,0,0,0,7.914,2.675,7.27,7.27,0,0,0,2.139-.214,13.609,13.609,0,0,0,8.877-5.35,12.561,12.561,0,0,0,2.139-4.708,6.74,6.74,0,0,0,3.209.749,6.572,6.572,0,0,0,1.39-.107,7.074,7.074,0,0,0,.749,2.675l3.208,6.1-24.6,3.853a7.768,7.768,0,0,0-5.24,3.21,7.967,7.967,0,0,0-1.5,5.992l5.882,37.56a15.222,15.222,0,0,0,1.711,4.816,13.941,13.941,0,0,0,1.07,1.605L46.5,309.121V329h4.278V308.907l-1.6-16.266a10.155,10.155,0,0,1,1.6,2.141c.428,1.07,2.246,8.774,3.85,15.73V329H58.8V309.763c-1.283-5.779-3.529-15.624-4.278-17.015a14.989,14.989,0,0,0-3.315-4.066l-1.819-1.605-1.283-1.284a12.982,12.982,0,0,1-1.07-1.5,8.151,8.151,0,0,1-1.176-3.532L39.979,243.31a3.9,3.9,0,0,1,.641-2.889,3.578,3.578,0,0,1,2.46-1.5l27.594-4.387H71c.107,0,.107,0,.214-.107h.213c.107,0,.107-.107.214-.107l.107-.107a.1.1,0,0,0,.107-.107l.107-.107c0-.107.107-.107.107-.214a.374.374,0,0,0,.107-.214c0-.107.107-.107.107-.214s0-.108.107-.214V231.86c0-.107,0-.107-.107-.214v-.107l-4.6-8.774a2.944,2.944,0,0,1-.214-1.926,2.529,2.529,0,0,1,1.284-1.5,2.4,2.4,0,0,1,1.925-.214,2.769,2.769,0,0,1,1.5,1.177l4.813,9.2a6.707,6.707,0,0,1,.107,6.207,6.571,6.571,0,0,1-5.027,3.638l-20.214,3.21a2.246,2.246,0,0,0-1.818,2.461,2.176,2.176,0,0,0,2.139,1.82h.321l3.743-.642,5.027,32,5.348,29.642V329h4.278V307.516L65.54,277.66l-5.027-32L72.6,243.738a11.1,11.1,0,0,0,8.128-16.158l-4.92-9.2a6.959,6.959,0,0,0-1.39-1.712,20.866,20.866,0,0,1,9.947-.535,1.936,1.936,0,0,0,2.139-.856,2.156,2.156,0,0,0,.214-2.247L76.556,194.086a2.017,2.017,0,0,0-2.032-1.07,2.411,2.411,0,0,0-1.925,1.391,20.092,20.092,0,0,1-9.2,10.7L58.053,208a6.235,6.235,0,0,0-2.032,1.713,14.578,14.578,0,0,0-2.566-2.569,13.546,13.546,0,0,0-16.043,21.83Zm21.069-15.3a3.113,3.113,0,0,1,1.5-1.819l5.347-2.889a25.025,25.025,0,0,0,9.305-8.989l6.31,11.664a24.192,24.192,0,0,0-12.406,3l-5.348,2.889a.1.1,0,0,0-.107.107,3.129,3.129,0,0,1-4.064-1.284l-.214-.428c-.107-.214-.107-.321-.214-.428-.107-.214-.107-.535-.214-.749A3.64,3.64,0,0,1,58.481,213.669ZM38.053,212.6a8.94,8.94,0,0,1,5.99-3.638,6.092,6.092,0,0,1,1.39-.107,9.278,9.278,0,0,1,5.455,1.819A8.859,8.859,0,0,1,54.31,215.6a5.521,5.521,0,0,0,.214,1.177,7.064,7.064,0,0,1,.107,1.5,9.221,9.221,0,0,1-1.818,5.351,8.94,8.94,0,0,1-5.989,3.638,8.679,8.679,0,0,1-6.845-1.712,8.931,8.931,0,0,1-3.637-6.1A8.689,8.689,0,0,1,38.053,212.6Z"/><path class="cls-3" d="M137.84,309.656a2.145,2.145,0,0,0-2.139,2.14V329h4.278V311.8A2.146,2.146,0,0,0,137.84,309.656Z"/><path class="cls-3" d="M117.733,329V309.442a6.372,6.372,0,0,1,6.31-6.528h13.369a6.373,6.373,0,0,1,6.31,6.528V329H148V309.442a10.847,10.847,0,0,0-9.412-10.7,9.274,9.274,0,0,0,1.605-5.351,9.414,9.414,0,1,0-18.824,0,9.865,9.865,0,0,0,1.6,5.351,10.6,10.6,0,0,0-9.411,10.7V329Zm13.048-40.96a5.186,5.186,0,0,1,5.133,5.35,5.254,5.254,0,0,1-5.133,5.351,5.187,5.187,0,0,1-5.134-5.351A5.254,5.254,0,0,1,130.781,288.04Z"/><path class="cls-3" d="M82.866,293.39a9.857,9.857,0,0,0,1.605,5.351,10.6,10.6,0,0,0-9.412,10.7V329H79.23V309.442a6.373,6.373,0,0,1,6.31-6.528H98.909a6.372,6.372,0,0,1,6.31,6.528V329H109.5V309.442a10.687,10.687,0,0,0-9.411-10.7,9.281,9.281,0,0,0,1.6-5.351,9.414,9.414,0,1,0-18.824,0Zm9.305-5.35a5.186,5.186,0,0,1,5.134,5.35,5.254,5.254,0,0,1-5.134,5.351,5.187,5.187,0,0,1-5.134-5.351A5.254,5.254,0,0,1,92.171,288.04Z"/><path class="cls-3" d="M12.278,329V309.442a6.441,6.441,0,0,1,6.31-6.528H31.957a6.372,6.372,0,0,1,6.31,6.528V329h4.171V309.442a10.687,10.687,0,0,0-9.411-10.7,9.281,9.281,0,0,0,1.6-5.351,9.544,9.544,0,0,0-9.412-9.63,9.545,9.545,0,0,0-9.412,9.63,9.857,9.857,0,0,0,1.6,5.351A10.6,10.6,0,0,0,8,309.442V329Zm12.941-40.96a5.355,5.355,0,0,1,0,10.7,5.186,5.186,0,0,1-5.133-5.351A5.253,5.253,0,0,1,25.219,288.04Z"/><path class="cls-3" d="M32.385,309.656a2.146,2.146,0,0,0-2.139,2.14V329h4.278V311.8A2.145,2.145,0,0,0,32.385,309.656Z"/><path class="cls-3" d="M123.187,309.656a2.146,2.146,0,0,0-2.139,2.14V329h4.278V311.8A2.145,2.145,0,0,0,123.187,309.656Z"/><path class="cls-3" d="M17.733,309.656a2.145,2.145,0,0,0-2.139,2.14V329h4.278V311.8A2.146,2.146,0,0,0,17.733,309.656Z"/><path class="cls-3" d="M215.315,309.656a2.146,2.146,0,0,1,2.14,2.14V329h-4.279V311.8A2.146,2.146,0,0,1,215.315,309.656Z"/><path class="cls-3" d="M200.663,309.656a2.145,2.145,0,0,1,2.139,2.14V329h-4.278V311.8A2.146,2.146,0,0,1,200.663,309.656Z"/><path class="cls-3" d="M267.936,220.089a13.541,13.541,0,0,0-21.391-12.948,14.578,14.578,0,0,0-2.566,2.569A6.235,6.235,0,0,0,241.947,208l-5.348-2.889a20.092,20.092,0,0,1-9.2-10.7,2.411,2.411,0,0,0-1.925-1.391,2.017,2.017,0,0,0-2.032,1.07l-10.161,18.941a2.156,2.156,0,0,0,.214,2.247,1.936,1.936,0,0,0,2.139.856,20.866,20.866,0,0,1,9.947.535,6.959,6.959,0,0,0-1.39,1.712l-4.92,9.2a11.1,11.1,0,0,0,8.128,16.158l12.086,1.927-5.027,32-5.348,29.856V329h4.278V307.837l5.348-29.642,5.027-32,3.743.642h.321a2.176,2.176,0,0,0,2.139-1.82,2.246,2.246,0,0,0-1.818-2.461l-20.214-3.21a6.571,6.571,0,0,1-5.027-3.638,6.707,6.707,0,0,1,.107-6.207l4.813-9.2a2.769,2.769,0,0,1,1.5-1.177,2.4,2.4,0,0,1,1.925.214,2.529,2.529,0,0,1,1.284,1.5,2.944,2.944,0,0,1-.214,1.926l-4.6,8.774v.107c-.107.107-.107.107-.107.214v1.285c.107.106.107.106.107.214s.107.107.107.214a.374.374,0,0,0,.107.214c0,.107.107.107.107.214l.107.107a.1.1,0,0,0,.107.107l.107.107c.107,0,.107.107.214.107h.213c.107.107.107.107.214.107h.321l27.594,4.387a3.578,3.578,0,0,1,2.46,1.5,3.9,3.9,0,0,1,.641,2.889l-5.882,37.453a8.151,8.151,0,0,1-1.176,3.532,12.982,12.982,0,0,1-1.07,1.5l-1.283,1.284-1.819,1.605a14.989,14.989,0,0,0-3.315,4.066c-.749,1.391-3,11.236-4.278,17.015V329h4.171V310.512c1.6-6.956,3.422-14.66,3.85-15.73a10.155,10.155,0,0,1,1.605-2.141l-1.605,16.266V329H253.5V309.121l2.139-21.295a13.941,13.941,0,0,0,1.07-1.605,15.222,15.222,0,0,0,1.711-4.816l5.882-37.56a7.967,7.967,0,0,0-1.5-5.992,7.768,7.768,0,0,0-5.24-3.21l-24.6-3.853,3.208-6.1a7.074,7.074,0,0,0,.749-2.675,6.572,6.572,0,0,0,1.39.107,6.74,6.74,0,0,0,3.209-.749,12.561,12.561,0,0,0,2.139,4.708,13.609,13.609,0,0,0,8.877,5.35,7.27,7.27,0,0,0,2.139.214,13.607,13.607,0,0,0,13.262-11.557Zm-26.31-5.35c-.107.214-.107.535-.214.749-.107.107-.107.214-.214.428l-.214.428a3.129,3.129,0,0,1-4.064,1.284.1.1,0,0,0-.107-.107l-5.348-2.889a24.192,24.192,0,0,0-12.406-3l6.31-11.664a25.025,25.025,0,0,0,9.305,8.989l5.347,2.889a3.113,3.113,0,0,1,1.5,1.819A3.64,3.64,0,0,1,241.626,214.739Zm22.032,4.708a8.931,8.931,0,0,1-3.637,6.1,8.679,8.679,0,0,1-6.845,1.712,8.94,8.94,0,0,1-5.989-3.638,9.221,9.221,0,0,1-1.818-5.351,7.064,7.064,0,0,1,.107-1.5,5.521,5.521,0,0,0,.214-1.177,8.859,8.859,0,0,1,3.422-4.922,9.278,9.278,0,0,1,5.455-1.819,6.092,6.092,0,0,1,1.39.107,8.94,8.94,0,0,1,5.99,3.638A8.689,8.689,0,0,1,263.658,219.447Z"/><path class="cls-3" d="M162.16,309.656a2.145,2.145,0,0,1,2.139,2.14V329h-4.278V311.8A2.146,2.146,0,0,1,162.16,309.656Z"/><path class="cls-3" d="M186.438,329V309.442a10.6,10.6,0,0,0-9.411-10.7,9.865,9.865,0,0,0,1.6-5.351,9.414,9.414,0,1,0-18.824,0,9.274,9.274,0,0,0,1.605,5.351,10.847,10.847,0,0,0-9.412,10.7V329h4.278V309.442a6.373,6.373,0,0,1,6.31-6.528h13.369a6.372,6.372,0,0,1,6.31,6.528V329Zm-12.085-35.61a5.187,5.187,0,0,1-5.134,5.351,5.254,5.254,0,0,1-5.133-5.351,5.186,5.186,0,0,1,5.133-5.35A5.254,5.254,0,0,1,174.353,293.39Z"/><path class="cls-3" d="M207.722,283.76a9.544,9.544,0,0,0-9.412,9.63,9.281,9.281,0,0,0,1.6,5.351,10.687,10.687,0,0,0-9.411,10.7V329h4.278V309.442a6.372,6.372,0,0,1,6.31-6.528H214.46a6.373,6.373,0,0,1,6.31,6.528V329h4.171V309.442a10.6,10.6,0,0,0-9.412-10.7,9.857,9.857,0,0,0,1.6-5.351A9.476,9.476,0,0,0,207.722,283.76Zm5.241,9.63a5.187,5.187,0,0,1-5.134,5.351,5.254,5.254,0,0,1-5.134-5.351,5.186,5.186,0,0,1,5.134-5.35A5.254,5.254,0,0,1,212.963,293.39Z"/><path class="cls-3" d="M292,329V309.442a10.6,10.6,0,0,0-9.412-10.7,9.857,9.857,0,0,0,1.6-5.351,9.414,9.414,0,1,0-18.824,0,9.281,9.281,0,0,0,1.6,5.351,10.687,10.687,0,0,0-9.411,10.7V329h4.171V309.442a6.372,6.372,0,0,1,6.31-6.528h13.369a6.441,6.441,0,0,1,6.31,6.528V329Zm-12.086-35.61a5.186,5.186,0,0,1-5.133,5.351,5.355,5.355,0,1,1,5.133-5.351Z"/><path class="cls-3" d="M267.615,309.656a2.146,2.146,0,0,1,2.139,2.14V329h-4.278V311.8A2.145,2.145,0,0,1,267.615,309.656Z"/><path class="cls-3" d="M176.813,309.656a2.146,2.146,0,0,1,2.139,2.14V329h-4.278V311.8A2.145,2.145,0,0,1,176.813,309.656Z"/><path class="cls-3" d="M282.267,309.656a2.145,2.145,0,0,1,2.139,2.14V329h-4.278V311.8A2.146,2.146,0,0,1,282.267,309.656Z"/><path class="cls-4" d="M84.685,453.656a2.146,2.146,0,0,0-2.14,2.14V473h4.279V455.8A2.146,2.146,0,0,0,84.685,453.656Z"/><path class="cls-4" d="M99.337,453.656A2.145,2.145,0,0,0,97.2,455.8V473h4.278V455.8A2.146,2.146,0,0,0,99.337,453.656Z"/><path class="cls-4" d="M37.412,372.971a13.553,13.553,0,0,0,7.914,2.675,7.27,7.27,0,0,0,2.139-.214,13.609,13.609,0,0,0,8.877-5.35,12.561,12.561,0,0,0,2.139-4.708,6.74,6.74,0,0,0,3.209.749,6.572,6.572,0,0,0,1.39-.107,7.074,7.074,0,0,0,.749,2.675l3.208,6.1-24.6,3.853a7.768,7.768,0,0,0-5.24,3.21,7.967,7.967,0,0,0-1.5,5.992l5.882,37.56a15.222,15.222,0,0,0,1.711,4.816,13.941,13.941,0,0,0,1.07,1.605L46.5,453.121V473h4.278V452.907l-1.6-16.266a10.155,10.155,0,0,1,1.6,2.141c.428,1.07,2.246,8.774,3.85,15.73V473H58.8V453.763c-1.283-5.779-3.529-15.624-4.278-17.015a14.989,14.989,0,0,0-3.315-4.066l-1.819-1.605-1.283-1.284a12.982,12.982,0,0,1-1.07-1.5,8.151,8.151,0,0,1-1.176-3.532L39.979,387.31a3.9,3.9,0,0,1,.641-2.889,3.578,3.578,0,0,1,2.46-1.5l27.594-4.387H71c.107,0,.107,0,.214-.107h.213c.107,0,.107-.107.214-.107l.107-.107a.1.1,0,0,0,.107-.107l.107-.107c0-.107.107-.107.107-.214a.374.374,0,0,0,.107-.214c0-.107.107-.107.107-.214s0-.108.107-.214V375.86c0-.107,0-.107-.107-.214v-.107l-4.6-8.774a2.944,2.944,0,0,1-.214-1.926,2.529,2.529,0,0,1,1.284-1.5,2.4,2.4,0,0,1,1.925-.214,2.769,2.769,0,0,1,1.5,1.177l4.813,9.2a6.707,6.707,0,0,1,.107,6.207,6.571,6.571,0,0,1-5.027,3.638l-20.214,3.21a2.246,2.246,0,0,0-1.818,2.461,2.176,2.176,0,0,0,2.139,1.82h.321l3.743-.642,5.027,32,5.348,29.642V473h4.278V451.516L65.54,421.66l-5.027-32L72.6,387.738a11.1,11.1,0,0,0,8.128-16.158l-4.92-9.2a6.959,6.959,0,0,0-1.39-1.712,20.866,20.866,0,0,1,9.947-.535,1.936,1.936,0,0,0,2.139-.856,2.156,2.156,0,0,0,.214-2.247L76.556,338.086a2.017,2.017,0,0,0-2.032-1.07,2.411,2.411,0,0,0-1.925,1.391,20.092,20.092,0,0,1-9.2,10.7L58.053,352a6.235,6.235,0,0,0-2.032,1.713,14.578,14.578,0,0,0-2.566-2.569,13.546,13.546,0,0,0-16.043,21.83Zm21.069-15.3a3.113,3.113,0,0,1,1.5-1.819l5.347-2.889a25.025,25.025,0,0,0,9.305-8.989l6.31,11.664a24.192,24.192,0,0,0-12.406,3l-5.348,2.889a.1.1,0,0,0-.107.107,3.129,3.129,0,0,1-4.064-1.284l-.214-.428c-.107-.214-.107-.321-.214-.428-.107-.214-.107-.535-.214-.749A3.64,3.64,0,0,1,58.481,357.669ZM38.053,356.6a8.94,8.94,0,0,1,5.99-3.638,6.092,6.092,0,0,1,1.39-.107,9.278,9.278,0,0,1,5.455,1.819A8.859,8.859,0,0,1,54.31,359.6a5.521,5.521,0,0,0,.214,1.177,7.064,7.064,0,0,1,.107,1.5,9.221,9.221,0,0,1-1.818,5.351,8.94,8.94,0,0,1-5.989,3.638,8.679,8.679,0,0,1-6.845-1.712,8.931,8.931,0,0,1-3.637-6.1A8.689,8.689,0,0,1,38.053,356.6Z"/><path class="cls-4" d="M137.84,453.656a2.145,2.145,0,0,0-2.139,2.14V473h4.278V455.8A2.146,2.146,0,0,0,137.84,453.656Z"/><path class="cls-4" d="M117.733,473V453.442a6.372,6.372,0,0,1,6.31-6.528h13.369a6.373,6.373,0,0,1,6.31,6.528V473H148V453.442a10.847,10.847,0,0,0-9.412-10.7,9.274,9.274,0,0,0,1.605-5.351,9.414,9.414,0,1,0-18.824,0,9.865,9.865,0,0,0,1.6,5.351,10.6,10.6,0,0,0-9.411,10.7V473Zm13.048-40.96a5.186,5.186,0,0,1,5.133,5.35,5.254,5.254,0,0,1-5.133,5.351,5.187,5.187,0,0,1-5.134-5.351A5.254,5.254,0,0,1,130.781,432.04Z"/><path class="cls-4" d="M82.866,437.39a9.857,9.857,0,0,0,1.605,5.351,10.6,10.6,0,0,0-9.412,10.7V473H79.23V453.442a6.373,6.373,0,0,1,6.31-6.528H98.909a6.372,6.372,0,0,1,6.31,6.528V473H109.5V453.442a10.687,10.687,0,0,0-9.411-10.7,9.281,9.281,0,0,0,1.6-5.351,9.414,9.414,0,1,0-18.824,0Zm9.305-5.35a5.186,5.186,0,0,1,5.134,5.35,5.254,5.254,0,0,1-5.134,5.351,5.187,5.187,0,0,1-5.134-5.351A5.254,5.254,0,0,1,92.171,432.04Z"/><path class="cls-4" d="M12.278,473V453.442a6.441,6.441,0,0,1,6.31-6.528H31.957a6.372,6.372,0,0,1,6.31,6.528V473h4.171V453.442a10.687,10.687,0,0,0-9.411-10.7,9.281,9.281,0,0,0,1.6-5.351,9.544,9.544,0,0,0-9.412-9.63,9.545,9.545,0,0,0-9.412,9.63,9.857,9.857,0,0,0,1.6,5.351A10.6,10.6,0,0,0,8,453.442V473Zm12.941-40.96a5.355,5.355,0,0,1,0,10.7,5.186,5.186,0,0,1-5.133-5.351A5.253,5.253,0,0,1,25.219,432.04Z"/><path class="cls-4" d="M32.385,453.656a2.146,2.146,0,0,0-2.139,2.14V473h4.278V455.8A2.145,2.145,0,0,0,32.385,453.656Z"/><path class="cls-4" d="M123.187,453.656a2.146,2.146,0,0,0-2.139,2.14V473h4.278V455.8A2.145,2.145,0,0,0,123.187,453.656Z"/><path class="cls-4" d="M17.733,453.656a2.145,2.145,0,0,0-2.139,2.14V473h4.278V455.8A2.146,2.146,0,0,0,17.733,453.656Z"/><path class="cls-4" d="M215.315,453.656a2.146,2.146,0,0,1,2.14,2.14V473h-4.279V455.8A2.146,2.146,0,0,1,215.315,453.656Z"/><path class="cls-4" d="M200.663,453.656a2.145,2.145,0,0,1,2.139,2.14V473h-4.278V455.8A2.146,2.146,0,0,1,200.663,453.656Z"/><path class="cls-4" d="M267.936,364.089a13.541,13.541,0,0,0-21.391-12.948,14.578,14.578,0,0,0-2.566,2.569A6.235,6.235,0,0,0,241.947,352l-5.348-2.889a20.092,20.092,0,0,1-9.2-10.7,2.411,2.411,0,0,0-1.925-1.391,2.017,2.017,0,0,0-2.032,1.07l-10.161,18.941a2.156,2.156,0,0,0,.214,2.247,1.936,1.936,0,0,0,2.139.856,20.866,20.866,0,0,1,9.947.535,6.959,6.959,0,0,0-1.39,1.712l-4.92,9.2a11.1,11.1,0,0,0,8.128,16.158l12.086,1.927-5.027,32-5.348,29.856V473h4.278V451.837l5.348-29.642,5.027-32,3.743.642h.321a2.176,2.176,0,0,0,2.139-1.82,2.246,2.246,0,0,0-1.818-2.461l-20.214-3.21a6.571,6.571,0,0,1-5.027-3.638,6.707,6.707,0,0,1,.107-6.207l4.813-9.2a2.769,2.769,0,0,1,1.5-1.177,2.4,2.4,0,0,1,1.925.214,2.529,2.529,0,0,1,1.284,1.5,2.944,2.944,0,0,1-.214,1.926l-4.6,8.774v.107c-.107.107-.107.107-.107.214v1.285c.107.106.107.106.107.214s.107.107.107.214a.374.374,0,0,0,.107.214c0,.107.107.107.107.214l.107.107a.1.1,0,0,0,.107.107l.107.107c.107,0,.107.107.214.107h.213c.107.107.107.107.214.107h.321l27.594,4.387a3.578,3.578,0,0,1,2.46,1.5,3.9,3.9,0,0,1,.641,2.889l-5.882,37.453a8.151,8.151,0,0,1-1.176,3.532,12.982,12.982,0,0,1-1.07,1.5l-1.283,1.284-1.819,1.605a14.989,14.989,0,0,0-3.315,4.066c-.749,1.391-3,11.236-4.278,17.015V473h4.171V454.512c1.6-6.956,3.422-14.66,3.85-15.73a10.155,10.155,0,0,1,1.605-2.141l-1.605,16.266V473H253.5V453.121l2.139-21.295a13.941,13.941,0,0,0,1.07-1.605,15.222,15.222,0,0,0,1.711-4.816l5.882-37.56a7.967,7.967,0,0,0-1.5-5.992,7.768,7.768,0,0,0-5.24-3.21l-24.6-3.853,3.208-6.1a7.074,7.074,0,0,0,.749-2.675,6.572,6.572,0,0,0,1.39.107,6.74,6.74,0,0,0,3.209-.749,12.561,12.561,0,0,0,2.139,4.708,13.609,13.609,0,0,0,8.877,5.35,7.27,7.27,0,0,0,2.139.214,13.607,13.607,0,0,0,13.262-11.557Zm-26.31-5.35c-.107.214-.107.535-.214.749-.107.107-.107.214-.214.428l-.214.428a3.129,3.129,0,0,1-4.064,1.284.1.1,0,0,0-.107-.107l-5.348-2.889a24.192,24.192,0,0,0-12.406-3l6.31-11.664a25.025,25.025,0,0,0,9.305,8.989l5.347,2.889a3.113,3.113,0,0,1,1.5,1.819A3.64,3.64,0,0,1,241.626,358.739Zm22.032,4.708a8.931,8.931,0,0,1-3.637,6.1,8.679,8.679,0,0,1-6.845,1.712,8.94,8.94,0,0,1-5.989-3.638,9.221,9.221,0,0,1-1.818-5.351,7.064,7.064,0,0,1,.107-1.5,5.521,5.521,0,0,0,.214-1.177,8.859,8.859,0,0,1,3.422-4.922,9.278,9.278,0,0,1,5.455-1.819,6.092,6.092,0,0,1,1.39.107,8.94,8.94,0,0,1,5.99,3.638A8.689,8.689,0,0,1,263.658,363.447Z"/><path class="cls-4" d="M162.16,453.656a2.145,2.145,0,0,1,2.139,2.14V473h-4.278V455.8A2.146,2.146,0,0,1,162.16,453.656Z"/><path class="cls-4" d="M186.438,473V453.442a10.6,10.6,0,0,0-9.411-10.7,9.865,9.865,0,0,0,1.6-5.351,9.414,9.414,0,1,0-18.824,0,9.274,9.274,0,0,0,1.605,5.351,10.847,10.847,0,0,0-9.412,10.7V473h4.278V453.442a6.373,6.373,0,0,1,6.31-6.528h13.369a6.372,6.372,0,0,1,6.31,6.528V473Zm-12.085-35.61a5.187,5.187,0,0,1-5.134,5.351,5.254,5.254,0,0,1-5.133-5.351,5.186,5.186,0,0,1,5.133-5.35A5.254,5.254,0,0,1,174.353,437.39Z"/><path class="cls-4" d="M207.722,427.76a9.544,9.544,0,0,0-9.412,9.63,9.281,9.281,0,0,0,1.6,5.351,10.687,10.687,0,0,0-9.411,10.7V473h4.278V453.442a6.372,6.372,0,0,1,6.31-6.528H214.46a6.373,6.373,0,0,1,6.31,6.528V473h4.171V453.442a10.6,10.6,0,0,0-9.412-10.7,9.857,9.857,0,0,0,1.6-5.351A9.476,9.476,0,0,0,207.722,427.76Zm5.241,9.63a5.187,5.187,0,0,1-5.134,5.351,5.254,5.254,0,0,1-5.134-5.351,5.186,5.186,0,0,1,5.134-5.35A5.254,5.254,0,0,1,212.963,437.39Z"/><path class="cls-4" d="M292,473V453.442a10.6,10.6,0,0,0-9.412-10.7,9.857,9.857,0,0,0,1.6-5.351,9.414,9.414,0,1,0-18.824,0,9.281,9.281,0,0,0,1.6,5.351,10.687,10.687,0,0,0-9.411,10.7V473h4.171V453.442a6.372,6.372,0,0,1,6.31-6.528h13.369a6.441,6.441,0,0,1,6.31,6.528V473Zm-12.086-35.61a5.186,5.186,0,0,1-5.133,5.351,5.355,5.355,0,1,1,5.133-5.351Z"/><path class="cls-4" d="M267.615,453.656a2.146,2.146,0,0,1,2.139,2.14V473h-4.278V455.8A2.145,2.145,0,0,1,267.615,453.656Z"/><path class="cls-4" d="M176.813,453.656a2.146,2.146,0,0,1,2.139,2.14V473h-4.278V455.8A2.145,2.145,0,0,1,176.813,453.656Z"/><path class="cls-4" d="M282.267,453.656a2.145,2.145,0,0,1,2.139,2.14V473h-4.278V455.8A2.146,2.146,0,0,1,282.267,453.656Z"/><path class="cls-5" d="M220.6,151.1v.167c0,.084-.028.111-.121.111h-2.013v6.068c0,.093-.028.121-.111.121h-.195c-.093,0-.121-.028-.121-.121v-6.068h-2.013c-.093,0-.121-.027-.121-.111V151.1c0-.093.028-.121.121-.121h4.453c.093,0,.121.028.121.121"/><g id="_Group_" data-name="&lt;Group&gt;"><path class="cls-5" d="M225.148,149.527l-1.651.945c-.075.031-.11.031-.15-.01l-.065-.07c-.055-.065-.045-.095.02-.13l1.566-1c.075-.035.14-.055.205.02l.095.1C225.223,149.452,225.223,149.492,225.148,149.527Z"/><path class="cls-5" d="M225.628,155.055l-1.315-3.292a1.809,1.809,0,0,1-.09-.4h-.03a1.323,1.323,0,0,1-.075.4l-1.316,3.292Zm-1.155-4.007,2.566,6.413c.03.065.01.11-.09.11h-.165c-.14,0-.19-.015-.2-.1l-.826-2.051h-3.081l-.816,2.051c-.03.085-.075.1-.215.1h-.155c-.095,0-.115-.045-.085-.11l2.572-6.413a.145.145,0,0,1,.155-.11h.185A.148.148,0,0,1,224.473,151.048Z"/></g><path class="cls-5" d="M232.264,154.63a1.657,1.657,0,0,0,1.634-1.79,1.715,1.715,0,0,0-1.884-1.855h-2.663c-.092,0-.12.028-.12.12v6.346c0,.093.028.121.12.121h.195c.083,0,.112-.028.112-.121v-2.774h1.531a1.374,1.374,0,0,1,1.437.881l.965,1.912c.037.083.084.1.233.1H234c.092,0,.111-.056.064-.121l-1.039-2.06A1.485,1.485,0,0,0,232.264,154.63Zm-2.606-3.246h2.31a1.447,1.447,0,1,1,0,2.894h-2.31Z"/><path class="cls-5" d="M238.573,150.855A2.384,2.384,0,0,1,241,152.292c.047.084.018.131-.055.159l-.186.083c-.074.028-.1.028-.148-.056a2.023,2.023,0,0,0-2.042-1.215c-1.2,0-1.893.519-1.893,1.411,0,1.094,1.03,1.271,2.078,1.382,1.132.129,2.311.325,2.311,1.753,0,1.207-.835,1.892-2.449,1.892a2.383,2.383,0,0,1-2.5-1.623c-.037-.093-.028-.13.065-.167l.176-.064c.084-.029.111-.019.158.073a2.059,2.059,0,0,0,2.1,1.374c1.335,0,2.022-.483,2.022-1.466,0-1.095-.965-1.234-1.976-1.355-1.16-.139-2.421-.334-2.421-1.772,0-1.132.862-1.846,2.328-1.846"/><path class="cls-5" d="M248.176,157.572h.167c.1,0,.121-.047.093-.112l-2.57-6.41a.144.144,0,0,0-.159-.112h-.184c-.084,0-.121.028-.159.112l-2.569,6.41c-.028.065-.01.112.083.112h.157c.141,0,.186-.018.214-.1l.818-2.05h3.079l.826,2.05C247.99,157.554,248.037,157.572,248.176,157.572Zm-2.589-6.207h.028a2.427,2.427,0,0,0,.092.4l1.318,3.294H244.2l1.317-3.294A1.325,1.325,0,0,0,245.587,151.365Z"/><path class="cls-5" d="M252.582,150.855a2.383,2.383,0,0,1,2.431,1.437c.047.084.019.131-.055.159l-.186.083c-.074.028-.1.028-.148-.056a2.023,2.023,0,0,0-2.042-1.215c-1.2,0-1.892.519-1.892,1.411,0,1.094,1.03,1.271,2.077,1.382,1.132.129,2.311.325,2.311,1.753,0,1.207-.835,1.892-2.449,1.892a2.385,2.385,0,0,1-2.5-1.623c-.037-.093-.028-.13.065-.167l.176-.064c.084-.029.111-.019.158.073a2.059,2.059,0,0,0,2.1,1.374c1.336,0,2.022-.483,2.022-1.466,0-1.095-.965-1.234-1.976-1.355-1.16-.139-2.421-.334-2.421-1.772,0-1.132.863-1.846,2.328-1.846"/><g id="_Group_2" data-name="&lt;Group&gt;"><path class="cls-5" d="M260.55,149.527l-1.65.945c-.075.031-.11.031-.151-.01l-.06-.07c-.06-.065-.05-.095.015-.13l1.571-1c.07-.035.14-.055.205.02l.09.1C260.625,149.452,260.625,149.492,260.55,149.527Z"/><path class="cls-5" d="M261.036,155.055l-1.321-3.292a2.176,2.176,0,0,1-.09-.4h-.03a1.323,1.323,0,0,1-.075.4l-1.316,3.292Zm-1.161-4.007,2.571,6.413c.025.065,0,.11-.1.11h-.165c-.14,0-.185-.015-.2-.1l-.825-2.051h-3.082l-.815,2.051c-.03.085-.075.1-.215.1h-.155c-.1,0-.115-.045-.085-.11l2.571-6.413a.149.149,0,0,1,.155-.11h.185A.148.148,0,0,1,259.875,151.048Z"/></g><path class="cls-5" d="M269.292,154.38v1.086a2.172,2.172,0,0,1-2.487,2.236,2.195,2.195,0,0,1-2.506-2.3v-2.264c0-1.41.854-2.283,2.5-2.283a2.171,2.171,0,0,1,2.44,1.615c.028.093,0,.12-.085.157l-.165.056c-.083.028-.131.01-.159-.074a1.786,1.786,0,0,0-2.031-1.354c-1.382,0-2.069.705-2.069,1.874V155.4c0,1.187.724,1.9,2.078,1.9,1.335,0,2.069-.714,2.069-1.836v-.808h-1.985c-.093,0-.122-.037-.122-.12v-.168c0-.082.029-.119.122-.119h2.282c.093,0,.121.037.121.129"/><path class="cls-5" d="M279.9,157.572h.167c.1,0,.121-.047.093-.112l-2.57-6.41a.143.143,0,0,0-.158-.112h-.185c-.084,0-.121.028-.159.112l-2.568,6.41c-.029.065-.01.112.083.112h.157c.14,0,.185-.018.214-.1l.817-2.05h3.079l.826,2.05C279.71,157.554,279.756,157.572,279.9,157.572Zm-2.589-6.207h.028a2.36,2.36,0,0,0,.093.4l1.318,3.294h-2.83l1.318-3.294A1.345,1.345,0,0,0,277.306,151.365Z"/><path class="cls-5" d="M218.636,162.429a2.383,2.383,0,0,1,2.43,1.438c.047.084.019.13-.055.159l-.186.082c-.074.028-.1.028-.148-.055a2.021,2.021,0,0,0-2.041-1.215c-1.2,0-1.893.518-1.893,1.41,0,1.095,1.03,1.272,2.078,1.382,1.133.13,2.311.325,2.311,1.753,0,1.207-.836,1.893-2.45,1.893a2.385,2.385,0,0,1-2.5-1.623c-.037-.093-.028-.131.066-.168l.176-.064c.083-.028.111-.018.157.074a2.06,2.06,0,0,0,2.1,1.374c1.336,0,2.023-.483,2.023-1.466,0-1.1-.965-1.235-1.977-1.355-1.159-.139-2.421-.334-2.421-1.772,0-1.133.863-1.847,2.329-1.847"/><path class="cls-5" d="M227.654,162.68v.149a.2.2,0,0,1-.047.148l-3.906,5.762h3.943c.093,0,.122.027.122.122v.165c0,.093-.029.121-.122.121h-4.361c-.083,0-.111-.028-.111-.121v-.158a.235.235,0,0,1,.047-.157l3.9-5.753H223.33c-.092,0-.121-.027-.121-.111v-.167c0-.092.029-.121.121-.121h4.2c.092,0,.121.029.121.121"/><path class="cls-5" d="M234.835,169.147H235c.1,0,.122-.047.093-.112l-2.569-6.41a.145.145,0,0,0-.159-.112h-.185c-.083,0-.12.029-.158.112l-2.569,6.41c-.028.065-.01.112.082.112h.158c.14,0,.186-.018.214-.1l.817-2.05h3.08l.825,2.05C234.649,169.129,234.7,169.147,234.835,169.147Zm-2.59-6.207h.029a2.321,2.321,0,0,0,.092.4l1.318,3.294h-2.83l1.317-3.294A1.292,1.292,0,0,0,232.245,162.94Z"/><g id="_Group_3" data-name="&lt;Group&gt;"><path class="cls-5" d="M241.346,164.264a1.192,1.192,0,0,0-1.356-1.305h-2.281V165.6h2.281A1.2,1.2,0,0,0,241.346,164.264Zm.215,3.092a1.259,1.259,0,0,0-1.421-1.371h-2.431v2.761h2.431A1.264,1.264,0,0,0,241.561,167.356Zm-.74-1.6a1.493,1.493,0,0,1,1.185,1.636,1.65,1.65,0,0,1-1.846,1.751H237.4c-.095,0-.12-.03-.12-.12v-6.349c0-.09.025-.12.12-.12h2.636a1.543,1.543,0,0,1,1.741,1.661,1.441,1.441,0,0,1-.96,1.521Z"/></g><path class="cls-5" d="M249.141,169.147h.166c.1,0,.122-.047.094-.112l-2.57-6.41a.145.145,0,0,0-.159-.112h-.185c-.083,0-.12.029-.158.112l-2.569,6.41c-.028.065-.01.112.083.112H244c.14,0,.186-.018.214-.1l.817-2.05h3.08l.826,2.05C248.955,169.129,249,169.147,249.141,169.147Zm-2.589-6.207h.028a2.427,2.427,0,0,0,.092.4l1.318,3.294h-2.829l1.317-3.294A1.325,1.325,0,0,0,246.552,162.94Z"/><path class="cls-5" d="M256.294,166.7v-1.689c0-1.512-.965-2.449-2.692-2.449h-1.891c-.094,0-.122.027-.122.121v6.345c0,.093.028.121.122.121H253.6C255.329,169.147,256.294,168.209,256.294,166.7Zm-4.278-3.739h1.6c1.456,0,2.255.76,2.255,2.05V166.7c0,1.289-.808,2.049-2.255,2.049h-1.6Z"/><path class="cls-5" d="M260.988,162.429a2.385,2.385,0,0,1,2.431,1.438c.046.084.018.13-.056.159l-.185.082c-.074.028-.1.028-.148-.055a2.023,2.023,0,0,0-2.042-1.215c-1.2,0-1.893.518-1.893,1.41,0,1.095,1.03,1.272,2.078,1.382,1.132.13,2.311.325,2.311,1.753,0,1.207-.836,1.893-2.449,1.893a2.383,2.383,0,0,1-2.5-1.623c-.037-.093-.028-.131.065-.168l.176-.064c.084-.028.111-.018.158.074a2.058,2.058,0,0,0,2.1,1.374c1.335,0,2.022-.483,2.022-1.466,0-1.1-.965-1.235-1.977-1.355-1.159-.139-2.421-.334-2.421-1.772,0-1.133.863-1.847,2.329-1.847"/><g id="_Group_4" data-name="&lt;Group&gt;"><path class="cls-5" d="M268.884,160.863l.09.1c.056.065.056.105-.02.14l-1.645.945c-.075.03-.115.03-.15-.01l-.065-.07c-.055-.065-.05-.095.015-.13l1.57-1C268.754,160.808,268.819,160.788,268.884,160.863Z"/><path class="cls-5" d="M269.44,166.63l-1.321-3.291a2.176,2.176,0,0,1-.09-.4H268a1.323,1.323,0,0,1-.075.4l-1.321,3.291Zm-1.161-4.007,2.571,6.414c.03.065.01.11-.1.11h-.165c-.14,0-.185-.02-.2-.1L269.56,167h-3.082l-.815,2.051c-.025.08-.075.1-.21.1h-.16c-.1,0-.115-.045-.085-.11l2.571-6.414a.144.144,0,0,1,.155-.11h.185A.14.14,0,0,1,268.279,162.623Z"/></g><path class="cls-5" d="M277.7,165.955v1.085a2.172,2.172,0,0,1-2.486,2.237,2.2,2.2,0,0,1-2.506-2.3v-2.263c0-1.411.854-2.283,2.5-2.283a2.171,2.171,0,0,1,2.44,1.615c.028.093,0,.12-.084.158l-.166.055c-.083.028-.131.009-.159-.074a1.785,1.785,0,0,0-2.031-1.354c-1.382,0-2.069.7-2.069,1.874v2.272c0,1.188.724,1.9,2.078,1.9,1.336,0,2.069-.714,2.069-1.837v-.807h-1.985c-.093,0-.122-.037-.122-.121v-.167c0-.083.029-.12.122-.12h2.282c.093,0,.12.037.12.13"/><g class="cls-6"><path class="cls-5" d="M284.043,162.671v4.463a2.186,2.186,0,0,1-4.342.324c-.028-.083-.011-.13.073-.157l.186-.065c.075-.028.121-.01.149.074a1.63,1.63,0,0,0,1.744,1.568,1.593,1.593,0,0,0,1.763-1.744v-4.463c0-.084.028-.111.112-.111h.2c.084,0,.112.027.112.111"/></g><path class="cls-5" d="M291.632,164.722a2.5,2.5,0,0,0-4.991,0v2.263a2.5,2.5,0,0,0,4.991,0Zm-4.565,0c0-1.188.724-1.893,2.079-1.893a1.8,1.8,0,0,1,2.058,1.893v2.263a1.8,1.8,0,0,1-2.058,1.893c-1.355,0-2.079-.7-2.079-1.893Z"/><path class="cls-5" d="M299.072,165.955v1.085a2.173,2.173,0,0,1-2.486,2.237,2.195,2.195,0,0,1-2.506-2.3v-2.263c0-1.411.854-2.283,2.5-2.283a2.171,2.171,0,0,1,2.441,1.615c.027.093,0,.12-.085.158l-.166.055c-.083.028-.131.009-.159-.074a1.784,1.784,0,0,0-2.031-1.354c-1.382,0-2.069.7-2.069,1.874v2.272c0,1.188.724,1.9,2.079,1.9,1.334,0,2.069-.714,2.069-1.837v-.807H296.67c-.094,0-.122-.037-.122-.121v-.167c0-.083.028-.12.122-.12h2.282c.092,0,.12.037.12.13"/><path class="cls-5" d="M306.429,164.722a2.5,2.5,0,0,0-4.991,0v2.263a2.5,2.5,0,0,0,4.991,0Zm-4.565,0c0-1.188.724-1.893,2.078-1.893A1.8,1.8,0,0,1,306,164.722v2.263a1.8,1.8,0,0,1-2.059,1.893c-1.354,0-2.078-.7-2.078-1.893Z"/><path class="cls-5" d="M313.618,169.147h-.183c-.15,0-.188-.018-.234-.1l-1.085-2.161a1.376,1.376,0,0,0-1.437-.882H309.5v3.024c0,.093-.028.121-.111.121h-.195c-.093,0-.121-.028-.121-.121V162.68c0-.093.028-.12.121-.12h.195c.083,0,.111.027.111.12v2.932h1.151a1.858,1.858,0,0,1,.232.009l2.19-2.959c.064-.084.1-.1.241-.1h.213c.092,0,.1.055.056.12l-2.254,3.016a1.7,1.7,0,0,1,1.186,1.02l1.17,2.31c.037.066.027.121-.066.121"/><path class="cls-5" d="M318.916,160.964l-.083-.1c-.064-.074-.13-.056-.213-.019l-1.568.994c-.064.036-.064.064-.01.129l.066.074c.026.038.064.038.148.01l1.642-.947C318.982,161.066,318.973,161.029,318.916,160.964Zm1.068,1.883v-.167c0-.093-.029-.12-.12-.12h-3.787c-.092,0-.121.027-.121.12v6.347c0,.092.029.12.121.12h3.916c.083,0,.12-.028.12-.12v-.168c0-.083-.037-.111-.12-.111h-3.61V166.01h3.081c.083,0,.112-.027.112-.12v-.167c0-.083-.029-.11-.112-.11h-3.081v-2.654h3.481C319.955,162.959,319.984,162.931,319.984,162.847Z"/><path class="cls-5" d="M325.6,166.206a1.658,1.658,0,0,0,1.632-1.791,1.714,1.714,0,0,0-1.882-1.855h-2.664c-.092,0-.12.027-.12.121v6.345c0,.093.028.121.12.121h.195c.083,0,.112-.028.112-.121v-2.774h1.529a1.375,1.375,0,0,1,1.439.882l.965,1.911c.037.084.084.1.231.1h.178c.092,0,.111-.055.063-.121l-1.038-2.06A1.481,1.481,0,0,0,325.6,166.206Zm-2.607-3.247h2.31a1.447,1.447,0,1,1,0,2.894h-2.31Z"/><path class="cls-5" d="M333.751,162.68v.167c0,.084-.027.111-.121.111h-2.012v6.068c0,.093-.028.121-.112.121h-.194c-.094,0-.122-.028-.122-.121v-6.068h-2.012c-.094,0-.12-.027-.12-.111v-.167c0-.092.026-.121.12-.121h4.452c.094,0,.121.029.121.121"/><path class="cls-2" d="M251.8,95.953c1.579,0,2.287.381,2.831,1.8l12.579,34.631c.545,1.47.056,2.233-1.579,2.233h-5.881c-2.831,0-3.648-.6-4.084-2.287l-1.252-3.92H242.656l-1.253,3.92c-.545,1.688-1.253,2.287-3.975,2.287h-5.717c-1.688,0-2.015-.763-1.47-2.233l12.524-34.522c.544-1.579,1.252-1.906,2.831-1.906Zm-3.593,9.911-3.05,13.994h6.806l-3.212-13.994Z"/><path class="cls-2" d="M286.721,110.329c-3.921-.49-7.133-.98-7.133-3.322,0-1.905,1.47-2.831,5.173-2.831,2.506,0,4.465.762,5.5,2.831.872,1.58,1.47,1.8,2.94,1.144l5.446-2.342c1.633-.653,2.068-1.47,1.307-3.049-2.559-5.227-7.133-7.623-15.193-7.623-10.4,0-16.172,5.009-16.172,12.2,0,10.564,8.93,11.707,15.3,12.578,3.594.491,6.371,1.089,6.371,3.213,0,2.341-2.179,3.1-5.826,3.1-3.05,0-5.173-.981-6.153-2.886-.818-1.579-1.579-1.742-3.213-1.2L269.95,124c-1.579.6-2.069,1.361-1.47,3,2.069,5.663,7.732,8.44,15.846,8.44,9.637,0,16.881-4.411,16.881-12.415,0-10.291-8.169-11.815-14.486-12.687"/><path class="cls-2" d="M331.5,125.085H317.727L332.809,103.9a3.79,3.79,0,0,0,.708-2.4V98.241c0-1.688-.544-2.287-2.286-2.287H305.964c-1.687,0-2.285.6-2.285,2.287v4.9c0,1.743.6,2.341,2.285,2.341H319.25l-15.083,21.236a3.63,3.63,0,0,0-.761,2.288v3.321c0,1.688.6,2.288,2.288,2.288H331.5c1.742,0,2.287-.6,2.287-2.288v-4.955c0-1.742-.545-2.287-2.287-2.287"/><path class="cls-2" d="M333.9,85.279,317.631,11.431A4.368,4.368,0,0,0,311.155,8.6l-115,70.407A4.37,4.37,0,0,0,194,82.938l.255,3.978a4.367,4.367,0,0,0,4.3,4.2l11.582.141a4.369,4.369,0,0,1,4.291,3.984l2.384,37.081c0,1.689.543,2.288,2.285,2.288H223.8c1.617,0,2.584-1.94,2.584-1.94l9.205-38.316a4.366,4.366,0,0,1,4.216-3.313l89.853-.46a4.368,4.368,0,0,0,4.243-5.307"/><path d="M358.121,20l5.94-5.939a1.5,1.5,0,0,0-2.122-2.122L356,17.879l-5.939-5.94a1.5,1.5,0,0,0-2.122,2.122L353.879,20l-5.94,5.939a1.5,1.5,0,0,0,2.122,2.122L356,22.121l5.939,5.94a1.5,1.5,0,0,0,2.122-2.122Z"/><path class="cls-2" d="M400,56a24,24,0,1,1,24-24A24.027,24.027,0,0,1,400,56Zm0-44a20,20,0,1,0,20,20A20.023,20.023,0,0,0,400,12Z"/><path class="cls-2" d="M399,46a2,2,0,0,1-1.97-2.348l2.238-12.681-1.239.744a2,2,0,1,1-2.058-3.43l5-3a2,2,0,0,1,3,2.063l-2.376,13.46,1.663-.665a2,2,0,0,1,1.486,3.714l-5,2A2.006,2.006,0,0,1,399,46Z"/><circle class="cls-2" cx="403" cy="20" r="3"/><circle cx="348" cy="48" r="2"/><circle cx="356" cy="48" r="2"/><circle cx="364" cy="48" r="2"/><polyline class="cls-7" points="344 74 350 80 360 68"/><g id="Webdesign"><g id="Search-results"><g id="segitseg"><path id="question" class="cls-8" d="M463.043,25A14.043,14.043,0,1,0,449,39.043,14.059,14.059,0,0,0,463.043,25M466,25A17,17,0,1,1,449,8a17.019,17.019,0,0,1,17,17m-17.1,5.92a1.851,1.851,0,1,0,1.308.544,1.869,1.869,0,0,0-1.308-.544m5.611-13.5a6.435,6.435,0,0,1,1.494,5.047,5.112,5.112,0,0,1-5.331,4.813,1.692,1.692,0,0,0-.2.006v.9a1.478,1.478,0,1,1-2.956,0V26.994c0-1.218.508-2.669,3.156-2.669a2.178,2.178,0,0,0,2.371-2.209,3.543,3.543,0,0,0-.758-2.732,4.332,4.332,0,0,0-3.387-1.193c-3.345,0-3.441,2.162-3.441,2.409a1.479,1.479,0,0,1-2.957,0c0-1.492,1.15-5.365,6.4-5.365a7.141,7.141,0,0,1,5.611,2.187"/></g></g></g><polyline class="cls-9" points="484 8 477 16 470 8"/><polyline class="cls-10" points="484 19 477 27 470 19"/><polyline class="cls-9" points="474 43 477 46 485 38"/><rect class="cls-11" x="433" y="61" width="51" height="32"/><rect class="cls-2" x="433" y="67" width="51" height="9"/><rect class="cls-2" x="461" y="81" width="19" height="5"/></svg>